# xmcd CD database file
#
# Track frame offsets:
#	183
#	14755
#	28735
#	43285
#	56090
#	68770
#	80365
#	92680
#	105205
#	116905
#	128315
#	139835
#	151758
#	163538
#	175763
#	189395
#	201443
#	213510
#	227313
#	239840
#
# Disc length: 3364 seconds
#
# Revision: 1
# Processed by: cddbd v1.5.2PL0 Copyright (c) Steve Scherf et al.
# Submitted via: CDex 1.70beta2
#
DISCID=0f0d2214
DTITLE=Louis Jordan - Platinum Collection
DYEAR=1994
DGENRE=Blues
TTITLE0=Toodle-Oo On Down
TTITLE1=So Good
TTITLE2=Honey In The Bee Ball
TTITLE3=Barnacle Bill The Sailor
TTITLE4=Flat Face
TTITLE5=Keep A Knocking
TTITLE6=Sam Jones Done Snagged His Britches
TTITLE7=Swingin' In A Coconut Tree
TTITLE8=Dong The Jitterbug
TTITLE9=At Te Swing Cat's Ball
TTITLE10=Jake What A Snake
TTITLE11=Fore Day Blues
TTITLE12=But I'll Be Back
TTITLE13=You Ain't Nowhere
TTITLE14=Rou're My Meat
TTITLE15=June Tenth Jamboree
TTITLE16=You Run Your Mouth And I'll Run My Business
TTITLE17=I'm Alabama Bound
TTITLE18=Somebody One Hoodooed The Hoodoo Man
TTITLE19=Bounce The Ball (Do Da Dittee Um Day)
EXTD=YEAR: 1994
EXTT0=
EXTT1=
EXTT2=
EXTT3=
EXTT4=
EXTT5=
EXTT6=
EXTT7=
EXTT8=
EXTT9=
EXTT10=
EXTT11=
EXTT12=
EXTT13=
EXTT14=
EXTT15=
EXTT16=
EXTT17=
EXTT18=
EXTT19=
PLAYORDER=
